<?xml version="1.0" encoding="utf-8"?>
<!-- Generator: Adobe Illustrator 21.0.0, SVG Export Plug-In . SVG Version: 6.00 Build 0)  -->
<svg version="1.1" id="Calque_1" xmlns="http://www.w3.org/2000/svg" xmlns:xlink="http://www.w3.org/1999/xlink" x="0px" y="0px"
	 viewBox="0 0 59.5 42.5" style="enable-background:new 0 0 59.5 42.5;" xml:space="preserve">
<style type="text/css">
	.st0{fill:url(#SVGID_1_);}
	.st1{fill:#1B75BC;}
	.st2{fill:#FFFFFF;}
	.st3{fill:#EC008C;}
	.st4{font-family:'MyriadPro-Regular';}
	.st5{font-size:4.2721px;}
	.st6{font-size:1.9825px;}
</style>
<linearGradient id="SVGID_1_" gradientUnits="userSpaceOnUse" x1="22.0152" y1="19.4608" x2="38.3806" y2="19.4608">
	<stop  offset="0" style="stop-color:#5170B6"/>
	<stop  offset="1" style="stop-color:#DC4598"/>
</linearGradient>
<path class="st0" d="M37.4,13.5c-1.2-1.4-3-1.4-3.4-1.4c-1.2,0-2.5,0.5-3.4,1.4l-0.4-0.4l0,0l0,0l-0.3-0.3c-0.3-0.2-1.5-1.1-3.3-1
	c-0.2,0-2,0.2-3.2,1.4c-1.8,1.8-1.8,4.6-0.3,6.4c2.5,2.5,5,5,7.5,7.5c2.1-2.2,4.2-4.4,6.3-6.6c0.1-0.1,0.3-0.4,0.4-0.6
	C38.3,18.4,39,15.4,37.4,13.5z"/>
<path class="st1" d="M36.3,15.9c-1.6-1.5-4.1-1.5-5.7,0l-0.3-0.3l0,0l0,0l-0.3-0.3l0,0c-1.6-1.3-3.9-1.2-5.4,0.3
	c-1.6,1.5-0.6,4.4-0.2,5.3c1.3,3.9,5,5.7,6.2,6.2c2.7-2.8,4.6-4.9,5.2-5.4c0.1-0.1,0.4-0.4,0.6-0.8c0.3-0.4,0.4-0.8,0.5-1
	c0.1-0.2,0.1-0.3,0.2-0.5c0.2-0.5,0.3-1.1,0.2-1.7c-0.1-0.3-0.2-0.5-0.2-0.6C36.9,16.6,36.7,16.3,36.3,15.9z"/>
<polygon class="st2" points="21.4,23.9 24.8,23.9 24.8,27.9 28.1,27.9 28.2,24.1 31.5,24.1 31.5,20.3 28.2,20.3 28.2,16.3 
	24.8,16.3 24.8,20.3 21.4,20.3 "/>
<text transform="matrix(1.052 0 0 1 19.9819 30.5313)" class="st3 st4 st5">SantePlus +</text>
<text transform="matrix(1.2437 0 0 1 23.8281 33.0752)" class="st4 st6">HEALTH APP</text>
</svg>
